<svg id="Layer_1" data-name="Layer 1" xmlns="http://www.w3.org/2000/svg" viewBox="0 0 417.29 265.41"><defs><style>.cls-1{fill:none;stroke:#000;stroke-miterlimit:10;}</style></defs><path d="M53.63,76.58l-5,6.22v21.64H29.54v-74H48.63V60.82L71.39,30.41H94.92L66.17,65l30.3,39.4H73.05Z"/><path d="M133.55,29.19c22.64,0,39.51,15.76,39.51,38.29s-16.87,38.29-39.51,38.29S93.92,90,93.92,67.48,110.91,29.19,133.55,29.19Zm0,16.87c-12.32,0-20.2,9.32-20.2,21.42s7.88,21.42,20.2,21.42,20.09-9.43,20.09-21.42S145.76,46.06,133.55,46.06Z"/><path d="M182.72,30.41h37.07c16.65,0,25.75,11.21,25.75,24.64s-9.1,24.31-25.75,24.31h-18v25.08H182.72ZM217.24,46.5H201.81V63.15h15.43c5.11,0,8.88-3.22,8.88-8.21S222.35,46.5,217.24,46.5Z"/><path d="M254.09,30.41h54.28V46.5H273.18V58.82h34.41V75H273.18V88.35h35.19v16.09H254.09Z"/><path d="M338.56,59.71v44.73H319.47v-74h19.65l30,42.62V30.41h19.2v74H369.86Z"/><path d="M79.38,207.9H48.63v29.74H29.54v-74H48.63v27.64H79.38V163.61H98.47v74H79.38Z"/><path d="M156.19,226.43H125.44l-3.77,11.21H100.91l27.86-74h24l28,74H160Zm-25.75-16.09h20.75l-10.43-30.08Z"/><path d="M215.9,162.39c16.21,0,26.2,8,31.64,17.2l-16,8.44a18.39,18.39,0,0,0-15.65-8.77c-12.1,0-20.64,9.32-20.64,21.42s8.54,21.42,20.64,21.42c5.77,0,11-2,14-4.44v-6.21h-17V195.58h35.74v29A42.81,42.81,0,0,1,215.9,239c-22.08,0-40.07-14.76-40.07-38.29S193.82,162.39,215.9,162.39Z"/><path d="M255.86,163.61h54.28V179.7H275V192h34.41v16.21H275v13.32h35.19v16.09H255.86Z"/><path d="M338.33,192.91v44.73H319.24v-74h19.64l30,42.62V163.61h19.2v74H369.63Z"/><rect class="cls-1" x="0.5" y="0.5" width="416.29" height="264.41"/></svg>
